<?xml version="1.0" standalone="no"?>
<!DOCTYPE svg PUBLIC "-//W3C//DTD SVG 20010904//EN"
 "http://www.w3.org/TR/2001/REC-SVG-20010904/DTD/svg10.dtd">
<svg version="1.0" xmlns="http://www.w3.org/2000/svg"
 width="500.000000pt" height="500.000000pt" viewBox="0 0 500.000000 500.000000"
 preserveAspectRatio="xMidYMid meet">
<metadata>
Created by potrace 1.14, written by Peter Selinger 2001-2017
</metadata>
<g transform="translate(0.000000,500.000000) scale(0.100000,-0.100000)"
fill="#000000" stroke="none">
<path d="M3012 4211 c-7 -4 -30 -52 -51 -106 l-38 -98 -89 -34 c-105 -40 -124
-55 -124 -98 0 -42 14 -53 123 -95 l91 -35 35 -91 c43 -108 54 -124 92 -124
42 0 61 25 99 126 l33 89 90 35 c102 38 127 57 127 98 0 40 -21 56 -125 95
l-90 34 -35 90 c-19 50 -41 98 -49 107 -14 17 -67 21 -89 7z"/>
<path d="M4231 4083 c-18 -15 -64 -122 -103 -239 -9 -26 -21 -34 -87 -58 -151
-56 -200 -82 -207 -111 -13 -51 9 -69 148 -121 116 -43 132 -52 143 -79 7 -16
29 -74 50 -128 21 -54 44 -105 52 -113 8 -7 30 -14 48 -14 43 0 52 13 105 155
23 61 47 115 53 121 7 6 62 30 122 54 145 56 155 63 155 104 0 19 -8 40 -18
49 -9 9 -73 37 -140 64 l-124 48 -49 130 c-27 72 -57 136 -66 143 -24 17 -57
15 -82 -5z"/>
<path d="M3456 3698 c-16 -16 -52 -96 -109 -243 -47 -121 -91 -223 -99 -227
-7 -4 -107 -43 -223 -87 -232 -89 -255 -104 -255 -171 0 -72 27 -88 405 -227
39 -14 75 -31 81 -37 6 -6 44 -96 84 -201 39 -104 76 -198 81 -207 9 -17 -11
-18 -366 -18 -414 0 -419 -1 -451 -61 -10 -20 -14 -43 -10 -63 4 -17 8 -40 10
-51 2 -14 13 -21 37 -25 27 -4 2178 -5 2322 -1 l37 1 0 100 0 100 -691 0
c-390 0 -689 4 -687 9 2 5 39 101 83 214 l79 206 66 25 c400 151 394 148 415
192 21 44 12 86 -24 116 -14 13 -123 61 -242 106 l-215 84 -85 221 c-94 247
-107 267 -175 267 -30 0 -50 -6 -68 -22z"/>
<path d="M196 3458 c-8 -13 -22 -46 -32 -74 -16 -47 -21 -52 -68 -68 -73 -26
-96 -43 -96 -71 0 -28 22 -45 96 -70 49 -17 52 -20 75 -83 40 -109 89 -108
128 1 l23 65 65 23 c109 39 110 88 1 128 -63 23 -66 26 -83 75 -25 74 -42 96
-70 96 -15 0 -30 -9 -39 -22z"/>
<path d="M1256 3458 c-8 -13 -22 -46 -32 -74 -16 -47 -21 -52 -68 -68 -73 -26
-96 -43 -96 -71 0 -28 22 -45 96 -70 49 -17 52 -20 75 -83 40 -109 89 -108
128 1 l23 65 65 23 c109 39 110 88 1 128 -63 23 -66 26 -83 75 -25 74 -42 96
-70 96 -15 0 -30 -9 -39 -22z"/>
<path d="M727 3372 c-9 -10 -57 -101 -106 -203 -75 -157 -93 -187 -118 -197
-15 -6 -100 -20 -188 -32 -205 -28 -245 -37 -261 -58 -33 -42 -20 -61 146
-223 140 -137 160 -160 160 -188 0 -17 -14 -108 -30 -201 -36 -201 -37 -244
-11 -262 16 -11 -7 -13 -150 -10 l-169 4 0 -104 0 -104 868 1 867 0 3 74 c2
41 -2 87 -9 103 -11 28 -12 28 -103 28 -54 0 -134 -9 -196 -22 -143 -29 -389
-31 -506 -4 -76 17 -86 17 -174 2 -109 -19 -219 -20 -322 -5 l-73 11 203 104
c111 57 210 104 218 104 9 0 97 -43 197 -95 99 -53 191 -98 204 -101 36 -9 73
20 73 57 0 28 -52 358 -66 418 -4 21 18 47 160 186 131 127 166 167 166 187 0
51 -31 62 -252 93 -112 15 -211 33 -222 39 -10 7 -64 102 -120 211 -101 200
-101 200 -137 203 -24 2 -40 -3 -52 -16z"/>
<path d="M3100 2025 c0 -32 -2 -35 -30 -35 -37 0 -40 -18 -3 -22 l27 -3 -27
-29 c-32 -34 -28 -46 8 -22 24 16 25 16 25 -9 0 -35 19 -31 27 5 3 17 12 30
19 30 19 0 18 19 -2 27 -14 5 -12 8 7 19 l24 13 -22 1 c-19 0 -23 6 -23 30 0
20 -5 30 -15 30 -10 0 -15 -11 -15 -35z"/>
<path d="M3215 2031 c5 -24 2 -29 -16 -34 -14 -4 -20 -11 -16 -21 6 -14 -62
-128 -84 -141 -17 -11 -10 -26 8 -16 12 6 20 5 29 -7 14 -19 4 -31 -45 -56
-42 -22 -33 -32 15 -16 44 15 52 21 105 75 36 37 49 65 31 65 -4 0 -6 19 -4
42 l4 42 18 -22 c12 -14 29 -22 49 -22 38 0 40 12 4 27 -24 10 -16 12 54 10
78 -2 81 -3 71 -22 -6 -11 -20 -30 -31 -42 -18 -20 -18 -23 -4 -23 9 0 22 9
29 20 18 28 27 25 25 -6 -1 -15 4 -29 11 -31 8 -3 12 7 12 32 0 32 2 36 20 30
14 -5 20 -2 20 9 0 9 -9 16 -20 16 -11 0 -20 5 -20 10 0 6 14 10 31 10 30 0
30 -1 27 -42 l-3 -43 45 -6 c25 -4 48 -5 53 -2 4 2 7 24 7 48 0 31 4 43 13 41
6 -1 9 -1 5 1 -5 3 -8 18 -8 33 0 38 -9 42 -70 34 -45 -6 -50 -9 -51 -33 0
-14 -3 -20 -6 -13 -2 6 -14 12 -25 12 -18 0 -19 4 -14 35 6 30 4 35 -13 35
-17 0 -18 -5 -14 -42 l6 -41 -73 7 c-45 4 -81 13 -91 22 -11 10 -25 13 -40 9
-19 -6 -21 -5 -15 19 5 22 3 26 -15 26 -18 0 -20 -4 -14 -29z m405 -54 c0 -16
-3 -18 -12 -9 -7 7 -20 12 -30 12 -26 0 -22 18 5 22 30 5 37 1 37 -25z m-350
3 c0 -5 -2 -10 -4 -10 -3 0 -8 5 -11 10 -3 6 -1 10 4 10 6 0 11 -4 11 -10z
m334 -26 c25 -10 19 -43 -10 -54 -32 -12 -34 -12 -34 0 0 5 11 12 25 16 14 3
25 10 25 15 0 5 -11 9 -25 9 -14 0 -25 5 -25 10 0 11 20 13 44 4z m-387 -31
c-2 -35 -17 -47 -33 -25 -9 13 -8 19 10 34 11 9 22 17 22 18 1 0 1 -12 1 -27z
m-24 -82 c-13 -15 -20 -17 -34 -8 -24 15 -14 27 21 27 28 0 29 -1 13 -19z"/>
<path d="M4186 2031 l7 -31 -151 0 c-141 0 -150 1 -155 20 -3 12 -14 20 -26
20 -25 0 -27 -13 -6 -34 14 -13 10 -15 -32 -22 -27 -3 -66 -10 -88 -14 -37 -7
-34 -8 30 -11 45 -1 57 -4 33 -6 -21 -2 -38 -9 -38 -14 0 -19 32 -21 82 -5 28
9 53 15 55 12 4 -4 -27 -34 -82 -81 -16 -14 -42 -25 -57 -25 -19 0 -28 -5 -28
-16 0 -13 7 -15 34 -11 20 3 45 0 61 -9 15 -8 31 -14 37 -14 5 0 28 -9 50 -20
50 -24 75 -25 117 -4 37 18 31 38 -8 29 -28 -6 -180 21 -194 34 -4 4 25 34 65
67 l73 59 113 3 c76 3 112 0 112 -7 0 -7 -21 -11 -50 -11 -40 0 -50 -3 -50
-16 0 -14 9 -16 58 -11 46 5 53 4 35 -5 -13 -6 -23 -15 -23 -19 0 -5 -16 -23
-35 -40 -19 -18 -33 -34 -31 -36 6 -7 49 18 64 36 11 14 13 10 8 -26 -4 -27
-2 -44 6 -49 6 -4 14 -2 16 4 5 15 35 15 50 0 16 -16 19 -11 25 59 4 56 3 63
-15 68 -26 9 -17 29 15 33 l26 3 3 -103 c4 -141 22 -134 26 10 2 71 7 112 13
112 6 0 8 -7 5 -16 -3 -9 3 -27 14 -41 25 -32 25 -43 0 -43 -20 0 -19 -1 4
-27 24 -26 27 -26 42 -11 15 14 15 21 5 47 -7 16 -21 37 -32 47 -37 33 -8 44
120 44 69 0 110 4 101 9 -26 15 -162 34 -237 33 -53 0 -73 3 -77 14 -7 19 -26
18 -26 -1 0 -8 -9 -15 -20 -15 -17 0 -20 6 -18 27 2 19 -2 28 -14 31 -15 3
-17 -2 -12 -27z m54 -186 c0 -31 -3 -35 -25 -35 -30 0 -33 16 -5 23 11 3 20
11 20 17 0 7 -8 10 -20 7 -13 -3 -20 0 -20 9 0 8 10 14 25 14 22 0 25 -4 25
-35z"/>
<path d="M2128 2023 c7 -3 16 -2 19 1 4 3 -2 6 -13 5 -11 0 -14 -3 -6 -6z"/>
<path d="M1880 1999 c0 -15 19 -49 28 -49 4 0 13 14 19 30 11 29 10 30 -18 30
-16 0 -29 -5 -29 -11z"/>
<path d="M2725 1880 c-3 -5 3 -10 14 -10 11 0 23 5 26 10 3 6 -3 10 -14 10
-11 0 -23 -4 -26 -10z"/>
<path d="M3522 1844 c2 -11 11 -20 22 -22 13 -3 17 1 14 14 -2 11 -11 20 -22
22 -13 3 -17 -1 -14 -14z"/>
<path d="M3418 1825 c-22 -29 -23 -45 -3 -45 18 0 28 20 23 48 -3 19 -4 19
-20 -3z"/>
<path d="M3620 1842 c0 -9 44 -32 60 -32 16 0 11 27 -6 34 -23 9 -54 7 -54 -2z"/>
<path d="M3460 1820 c0 -52 112 -91 171 -60 26 14 24 22 -12 49 -29 22 -31 22
-25 3 5 -13 1 -22 -10 -26 -26 -10 -92 12 -109 37 l-15 21 0 -24z"/>
<path d="M285 1733 c-8 -35 -24 -55 -37 -47 -6 4 -8 -28 -6 -85 3 -98 -4 -110
-42 -69 -21 22 -27 48 -11 48 18 0 20 30 3 39 -12 6 -26 2 -47 -10 -29 -19
-29 -19 -7 -25 12 -4 22 -9 22 -13 0 -3 3 -16 6 -28 5 -17 0 -22 -25 -28 -17
-4 -31 -10 -31 -15 0 -14 24 -18 47 -7 16 7 42 3 103 -17 91 -29 108 -31 145
-14 41 18 29 28 -37 29 -35 1 -74 4 -88 8 l-25 7 22 12 c12 7 33 12 47 12 16
0 26 6 26 14 0 8 7 22 16 31 9 9 14 18 11 21 -9 9 -49 9 -79 1 -21 -6 -28 -4
-28 7 0 9 15 17 40 21 30 5 40 11 40 25 0 10 5 22 10 25 21 13 -4 27 -38 22
l-35 -6 23 24 c22 24 20 45 -5 45 -7 0 -16 -12 -20 -27z m32 -78 c-8 -19 -47
-20 -47 -1 0 8 10 16 23 18 28 5 31 3 24 -17z m13 -90 c0 -8 -6 -15 -14 -15
-8 0 -21 -3 -30 -6 -10 -4 -16 -1 -16 9 0 16 14 25 43 26 9 1 17 -6 17 -14z"/>
<path d="M560 1725 c0 -32 -2 -35 -30 -35 -37 0 -40 -18 -3 -22 l27 -3 -27
-29 c-32 -34 -28 -46 8 -22 24 16 25 16 25 -9 0 -35 19 -31 27 5 3 17 12 30
19 30 19 0 18 19 -2 27 -14 5 -12 8 7 19 l24 13 -22 1 c-19 0 -23 6 -23 30 0
20 -5 30 -15 30 -10 0 -15 -11 -15 -35z"/>
<path d="M675 1731 c5 -24 2 -29 -16 -34 -14 -4 -20 -11 -16 -21 6 -14 -62
-128 -84 -141 -17 -11 -10 -26 8 -16 12 6 20 5 29 -7 14 -19 4 -31 -45 -56
-42 -22 -33 -32 15 -16 44 15 52 21 105 75 36 37 49 65 31 65 -4 0 -6 19 -4
42 l4 42 18 -22 c19 -23 80 -32 80 -12 0 6 -5 10 -11 10 -7 0 -28 10 -47 22
-34 21 -35 23 -14 28 31 7 27 26 -5 23 -22 -2 -24 1 -19 22 5 21 3 25 -15 25
-18 0 -20 -4 -14 -29z m2 -108 c-2 -35 -17 -47 -33 -25 -9 13 -8 19 10 34 11
9 22 17 22 18 1 0 1 -12 1 -27z m-24 -82 c-13 -15 -20 -17 -34 -8 -24 15 -14
27 21 27 28 0 29 -1 13 -19z"/>
<path d="M1362 1748 c3 -7 15 -15 29 -19 22 -7 22 -7 2 -8 -50 -2 -70 -30 -40
-60 10 -10 2 -11 -36 -9 l-48 3 3 35 c3 30 0 35 -20 38 -19 3 -23 0 -18 -15
19 -65 19 -73 -4 -73 -13 0 -20 -5 -17 -12 2 -7 11 -12 21 -10 12 2 16 -5 16
-27 0 -25 -6 -32 -35 -42 -37 -14 -42 -32 -9 -36 11 -2 38 15 64 38 35 31 40
40 23 36 -19 -4 -23 -1 -23 18 0 25 29 43 41 24 5 -8 15 -9 40 -1 19 6 58 14
87 18 32 4 51 11 49 18 -2 6 -16 10 -31 8 -20 -2 -26 2 -26 18 0 11 7 20 15
20 8 0 15 5 15 10 0 6 -8 10 -19 10 -10 0 -24 7 -31 15 -15 18 -53 20 -48 3z
m32 -72 c-5 -14 -9 -15 -15 -5 -5 8 -3 17 4 21 15 9 19 4 11 -16z"/>
<path d="M910 1724 c0 -20 -41 -94 -52 -94 -4 0 -8 -9 -8 -21 0 -18 4 -20 25
-15 30 8 33 -8 5 -31 -17 -15 -29 -63 -16 -63 3 0 25 11 50 24 35 19 46 21 46
10 0 -8 7 -14 15 -14 17 0 20 23 5 51 -12 22 -45 27 -37 5 5 -13 -12 -26 -34
-26 -5 0 9 25 31 55 23 31 38 60 35 65 -12 19 -30 10 -43 -20 -8 -16 -20 -30
-28 -30 -19 0 -18 3 15 52 21 31 27 46 19 55 -14 18 -28 16 -28 -3z"/>
<path d="M156 1685 c19 -29 44 -33 44 -6 0 11 -9 21 -22 25 -37 9 -39 7 -22
-19z"/>
<path d="M1043 1667 c-29 -5 -53 -14 -53 -19 0 -6 24 -8 53 -6 l52 3 -3 -55
c-5 -68 -17 -94 -43 -87 -24 6 -24 -1 0 -32 l18 -24 23 20 c16 16 24 40 31 99
6 43 13 82 16 87 6 10 -16 27 -32 26 -5 -1 -34 -6 -62 -12z"/>
<path d="M1390 1620 c-8 -5 -27 -10 -42 -10 -27 0 -39 -22 -19 -34 5 -3 11
-17 13 -31 4 -21 -3 -33 -35 -60 -27 -24 -35 -35 -24 -35 24 0 84 41 96 65 9
18 10 17 10 -10 2 -47 14 -58 65 -58 57 0 65 7 59 56 -5 38 -23 52 -23 18 0
-36 -12 -51 -40 -51 -50 0 -54 22 -16 80 19 29 32 59 29 66 -6 16 -51 18 -73
4z m30 -34 c0 -18 -7 -25 -27 -29 -34 -6 -46 1 -15 10 30 8 28 26 -3 21 -14
-3 -25 -2 -25 3 0 4 12 10 28 12 15 2 30 5 35 6 4 0 7 -10 7 -23z"/>
</g>
</svg>
